<?xml version="1.0" encoding="utf-8"?>
<!DOCTYPE svg PUBLIC "-//W3C//DTD SVG 20010904//EN" "http://www.w3.org/TR/2001/REC-SVG-20010904/DTD/svg10.dtd">
<svg version="1.0" xmlns="http://www.w3.org/2000/svg" width="102pt" height="102pt" viewBox="0 0 102 102" style="" preserveAspectRatio="xMidYMid meet">
<g fill="#776D7EFF" stroke="#776D7EFF">
<path d="M 61.639 46.694 C 60.641 47.692 60.888 52.923 62.035 55.066 C 62.846 56.581 64.150 57.000 68.060 57.000 C 72.557 57.000 73.151 56.734 74.073 54.309 C 75.448 50.691 74.873 46.500 73.000 46.500 C 72.023 46.500 71.588 47.313 71.753 48.833 C 71.892 50.117 71.568 51.917 71.033 52.833 C 70.233 54.205 70.055 54.013 70.030 51.750 C 70.007 49.677 69.508 49.000 68.000 49.000 C 66.521 49.000 66.000 49.667 66.000 51.559 C 66.000 53.010 65.567 53.851 65.000 53.500 C 64.450 53.160 64.000 51.585 64.000 50.000 C 64.000 47.115 62.841 45.492 61.639 46.694 "/></g>
<g fill="#776D7EFF" stroke="#776D7EFF">
<path d="M 19.555 48.592 C 17.050 51.667 15.000 55.042 15.000 56.092 C 15.000 57.810 15.795 58.000 23.000 58.000 C 29.444 58.000 31.000 57.708 31.000 56.500 C 31.000 55.330 29.653 55.000 24.879 55.000 L 18.757 55.000 23.379 49.591 C 25.920 46.615 28.000 43.915 28.000 43.591 C 28.000 43.266 27.125 43.000 26.055 43.000 C 24.903 43.000 22.252 45.281 19.555 48.592 "/></g>
<g fill="#776D7EFF" stroke="#776D7EFF">
<path d="M 91.451 41.250 C 93.419 47.722 93.652 50.256 92.759 55.440 C 91.754 61.273 92.206 63.194 94.129 61.271 C 96.866 58.534 97.307 45.580 94.828 40.750 C 93.441 38.048 90.605 38.468 91.451 41.250 "/></g>
<g fill="#776D7EFF" stroke="#776D7EFF">
<path d="M 6.924 41.142 C 6.294 42.320 5.778 46.531 5.778 50.500 C 5.778 57.495 7.054 62.000 9.035 62.000 C 10.189 62.000 10.200 59.983 9.078 54.179 C 8.315 50.233 8.613 47.619 10.549 41.250 C 11.463 38.244 8.522 38.156 6.924 41.142 "/></g>
<g fill="#776D7EFF" stroke="#776D7EFF">
<path d="M 83.250 47.745 C 81.463 48.635 80.000 49.907 80.000 50.573 C 80.000 51.998 87.705 55.301 89.066 54.459 C 90.604 53.509 90.134 52.365 87.771 51.311 L 85.541 50.316 87.771 49.123 C 88.997 48.467 90.000 47.495 90.000 46.965 C 90.000 45.548 86.959 45.899 83.250 47.745 "/></g>
<g fill="#776D7EFF" stroke="#776D7EFF">
<path d="M 43.701 48.632 C 42.127 50.207 43.061 52.130 45.250 51.820 C 46.488 51.644 47.500 50.831 47.500 50.014 C 47.500 48.425 44.866 47.467 43.701 48.632 "/></g>
</svg>
